<svg width="21" height="20" viewBox="0 0 21 20" fill="none" xmlns="http://www.w3.org/2000/svg">
<path fill-rule="evenodd" clip-rule="evenodd" d="M18 3L4 2C3.9 2 3.7 2 3.6 2.1C3.3 1.6 3 1.1 2.7 0.8C2.1 0.2 1.2 0 0 0V2C0.8 2 1.2 2.1 1.3 2.2C1.7 2.6 2 3.4 2 4V4.1L3 11C1.4 11.1 0.1 12.4 0 13.9V14.9C0.1 16.5 1.4 17.8 2.9 17.9H3.1C3.5 19.1 4.6 19.9 5.9 19.9C7.2 19.9 8.3 19.1 8.7 17.9H11C11.4 19.1 12.5 19.9 13.8 19.9C15.5 19.9 16.8 18.6 16.8 16.9C16.8 15.2 15.5 13.9 13.8 13.9C12.5 13.9 11.4 14.7 11 15.9H8.7C8.3 14.7 7.2 13.9 5.9 13.9C4.6 13.9 3.5 14.7 3.1 15.9H3C2.5 15.9 2 15.4 2 14.8V14C2 13.5 2.5 13 3 13H5H15.1H15.2C16 12.8 16.6 12.2 16.9 11.4L17.3 10.5C17.7 9.8 18 9.1 18.4 8.4C19.2 6.7 19.8 5.6 19.9 5.4C20.5 4.1 19.3 3 18 3ZM14 16C14.6 16 15 16.4 15 17C15 17.6 14.6 18 14 18C13.4 18 13 17.6 13 17C13 16.4 13.4 16 14 16ZM6 16C6.6 16 7 16.4 7 17C7 17.6 6.6 18 6 18C5.4 18 5 17.6 5 17C5 16.4 5.4 16 6 16ZM16.6 7.5C16.3 8.2 15.9 8.9 15.5 9.6L15 10.5V10.6C14.9 10.7 14.8 10.9 14.7 10.9H5.1C5 11 5 10.9 5 10.9L4 4L17.9 5C17.7 5.5 17.2 6.4 16.6 7.5Z" fill="#8D2B0B"/>
</svg>
