{
	"asset":{
		"generator":"Khronos glTF Blender I/O v4.4.55",
		"version":"2.0"
	},
	"scene":0,
	"scenes":[
		{
			"name":"Scene",
			"nodes":[
				1
			]
		}
	],
	"nodes":[
		{
			"mesh":0,
			"name":"Tri B_N_Dark Elf_M_Head_01"
		},
		{
			"children":[
				0
			],
			"name":"b_n_dark elf_m_head_01"
		}
	],
	"materials":[
		{
			"emissiveFactor":[
				1,
				1,
				1
			],
			"name":"Material #7",
			"pbrMetallicRoughness":{
				"baseColorFactor":[
					0,
					0,
					0,
					1
				]
			}
		}
	],
	"meshes":[
		{
			"extras":{
				"targetNames":[
					"Key",
					"Key.001"
				]
			},
			"name":"Tri B_N_Dark Elf_M_Head_01",
			"primitives":[
				{
					"attributes":{
						"POSITION":0,
						"NORMAL":1,
						"TEXCOORD_0":2
					},
					"indices":3,
					"material":0,
					"targets":[
						{
							"POSITION":4,
							"NORMAL":5
						},
						{
							"POSITION":6,
							"NORMAL":7
						}
					]
				}
			],
			"weights":[
				0,
				0
			]
		}
	],
	"accessors":[
		{
			"bufferView":0,
			"componentType":5126,
			"count":254,
			"max":[
				0.047275613993406296,
				0.07619154453277588,
				0.07379457354545593
			],
			"min":[
				-0.047275643795728683,
				-0.08463522791862488,
				-0.06967239826917648
			],
			"type":"VEC3"
		},
		{
			"bufferView":1,
			"componentType":5126,
			"count":254,
			"type":"VEC3"
		},
		{
			"bufferView":2,
			"componentType":5126,
			"count":254,
			"type":"VEC2"
		},
		{
			"bufferView":3,
			"componentType":5123,
			"count":1392,
			"type":"SCALAR"
		},
		{
			"componentType":5126,
			"count":254,
			"max":[
				0.00182633800432086,
				0,
				0
			],
			"min":[
				-0.0018263133242726326,
				-0.014622129499912262,
				-0.010183561593294144
			],
			"sparse":{
				"count":46,
				"indices":{
					"bufferView":4,
					"componentType":5121
				},
				"values":{
					"bufferView":5
				}
			},
			"type":"VEC3"
		},
		{
			"bufferView":6,
			"componentType":5126,
			"count":254,
			"type":"VEC3"
		},
		{
			"componentType":5126,
			"count":254,
			"max":[
				0.0012619998306035995,
				0,
				0.001990247517824173
			],
			"min":[
				-0.001261998899281025,
				-0.007887798361480236,
				-0.0009647198021411896
			],
			"sparse":{
				"count":6,
				"indices":{
					"bufferView":7,
					"componentType":5121
				},
				"values":{
					"bufferView":8
				}
			},
			"type":"VEC3"
		},
		{
			"bufferView":9,
			"componentType":5126,
			"count":254,
			"type":"VEC3"
		}
	],
	"bufferViews":[
		{
			"buffer":0,
			"byteLength":3048,
			"byteOffset":0,
			"target":34962
		},
		{
			"buffer":0,
			"byteLength":3048,
			"byteOffset":3048,
			"target":34962
		},
		{
			"buffer":0,
			"byteLength":2032,
			"byteOffset":6096,
			"target":34962
		},
		{
			"buffer":0,
			"byteLength":2784,
			"byteOffset":8128,
			"target":34963
		},
		{
			"buffer":0,
			"byteLength":46,
			"byteOffset":10912
		},
		{
			"buffer":0,
			"byteLength":552,
			"byteOffset":10960
		},
		{
			"buffer":0,
			"byteLength":3048,
			"byteOffset":11512,
			"target":34962
		},
		{
			"buffer":0,
			"byteLength":6,
			"byteOffset":14560
		},
		{
			"buffer":0,
			"byteLength":72,
			"byteOffset":14568
		},
		{
			"buffer":0,
			"byteLength":3048,
			"byteOffset":14640,
			"target":34962
		}
	],
	"buffers":[
		{
			"byteLength":17688,
			"uri":"Untitled.bin"
		}
	]
}
