<?xml version="1.0" encoding="UTF-8" standalone="no"?>
<svg
   xmlns:dc="http://purl.org/dc/elements/1.1/"
   xmlns:cc="http://creativecommons.org/ns#"
   xmlns:rdf="http://www.w3.org/1999/02/22-rdf-syntax-ns#"
   xmlns:svg="http://www.w3.org/2000/svg"
   xmlns="http://www.w3.org/2000/svg"
   xmlns:sodipodi="http://sodipodi.sourceforge.net/DTD/sodipodi-0.dtd"
   xmlns:inkscape="http://www.inkscape.org/namespaces/inkscape"
   inkscape:version="1.0 (4035a4fb49, 2020-05-01)"
   sodipodi:docname="logo.svg"
   id="svg8"
   version="1.1"
   viewBox="0 0 174.11598 180.49442"
   height="180.49442mm"
   width="174.11598mm">
  <defs
     id="defs2" />
  <sodipodi:namedview
     fit-margin-bottom="0"
     fit-margin-right="0"
     fit-margin-left="0"
     fit-margin-top="0"
     inkscape:window-maximized="1"
     inkscape:window-y="-8"
     inkscape:window-x="-8"
     inkscape:window-height="1017"
     inkscape:window-width="1920"
     showgrid="false"
     inkscape:document-rotation="0"
     inkscape:current-layer="layer1"
     inkscape:document-units="mm"
     inkscape:cy="323.15633"
     inkscape:cx="100.80409"
     inkscape:zoom="0.7"
     inkscape:pageshadow="2"
     inkscape:pageopacity="0.0"
     borderopacity="1.0"
     bordercolor="#666666"
     pagecolor="#ffffff"
     id="base" />
  <metadata
     id="metadata5">
    <rdf:RDF>
      <cc:Work
         rdf:about="">
        <dc:format>image/svg+xml</dc:format>
        <dc:type
           rdf:resource="http://purl.org/dc/dcmitype/StillImage" />
        <dc:title></dc:title>
      </cc:Work>
    </rdf:RDF>
  </metadata>
  <g
     transform="translate(-1.1340023,-0.79153394)"
     id="layer1"
     inkscape:groupmode="layer"
     inkscape:label="Слой 1">
    <path
       transform="matrix(0.26458333,0,0,0.26458333,1.1340023,0.79153394)"
       d="M 288.57031 10.824219 L 288.57031 549.21289 A 345.71429 345.71429 0 0 1 78 231.00781 A 345.71429 345.71429 0 0 1 111.35156 82.857422 A 345.71429 345.71429 0 0 0 0 337.00781 A 345.71429 345.71429 0 0 0 326.42773 682.18359 L 326.42773 10.824219 L 288.57031 10.824219 z M 384.28516 10.824219 L 384.28516 680.5625 A 345.71429 345.71429 0 0 0 658.07617 485.16016 A 345.71429 345.71429 0 0 1 425.71484 576.7168 L 425.71484 10.824219 L 384.28516 10.824219 z "
       style="fill:#ffffff;fill-opacity:1;stroke-width:0.999999"
       id="path34" />
  </g>
</svg>
